<svg width="242" height="242" viewBox="0 0 242 242" fill="none" xmlns="http://www.w3.org/2000/svg">
<circle cx="121" cy="121" r="64.0588" fill="#ffffff"/>
<path d="M121 0L130.246 42.7059H111.754L121 0Z" fill="#ffffff"/>
<path d="M121 242L111.754 199.294L130.246 199.294L121 242Z" fill="#ffffff"/>
<path d="M242 121L199.294 130.246L199.294 111.754L242 121Z" fill="#ffffff"/>
<path d="M-4.66683e-07 121L42.7059 111.754L42.7059 130.246L-4.66683e-07 121Z" fill="#ffffff"/>
<path d="M206.56 35.4401L182.288 72.7114L169.289 59.7119L206.56 35.4401Z" fill="#ffffff"/>
<path d="M35.4401 206.56L59.7119 169.289L72.7113 182.288L35.4401 206.56Z" fill="#ffffff"/>
<path d="M206.56 206.56L169.289 182.288L182.288 169.289L206.56 206.56Z" fill="#ffffff"/>
<path d="M35.4401 35.4401L72.7114 59.7119L59.7119 72.7113L35.4401 35.4401Z" fill="#ffffff"/>
</svg>
